<svg width="10" height="16" viewBox="0 0 10 16" fill="none" xmlns="http://www.w3.org/2000/svg">
<path d="M9.16109 0.00332907L7.0024 0C4.57718 0 3.0099 1.54552 3.0099 3.93762V5.75313H0.839433C0.651879 5.75313 0.5 5.89927 0.5 6.07954V8.71001C0.5 8.89028 0.652052 9.03625 0.839433 9.03625H3.0099V15.6738C3.0099 15.854 3.16178 16 3.34933 16H6.18118C6.36873 16 6.52061 15.8539 6.52061 15.6738V9.03625H9.05839C9.24595 9.03625 9.39782 8.89028 9.39782 8.71001L9.39886 6.07954C9.39886 5.99299 9.36302 5.91009 9.29946 5.84884C9.2359 5.78758 9.14931 5.75313 9.05926 5.75313H6.52061V4.2141C6.52061 3.47438 6.70401 3.09886 7.70655 3.09886L9.16074 3.09836C9.34812 3.09836 9.5 2.95222 9.5 2.77211V0.329578C9.5 0.149642 9.34829 0.00366197 9.16109 0.00332907Z" fill="#3C7DFF"/>
</svg>
