<svg width="16" height="16" viewBox="0 0 16 16" fill="none" xmlns="http://www.w3.org/2000/svg">
<path d="M15.996 16L16 15.9993V10.1314C16 7.26073 15.382 5.04942 12.026 5.04942C10.4127 5.04942 9.33 5.93474 8.888 6.77407H8.84133V5.31741H5.65933V15.9993H8.97267V10.71C8.97267 9.31738 9.23667 7.97073 10.9613 7.97073C12.6607 7.97073 12.686 9.56005 12.686 10.7994V16H15.996Z" fill="#3C7DFF"/>
<path d="M0.263996 5.31784H3.58133V15.9998H0.263996V5.31784Z" fill="#3C7DFF"/>
<path d="M1.92133 0C0.860666 0 0 0.86066 0 1.92132C0 2.98198 0.860666 3.86064 1.92133 3.86064C2.982 3.86064 3.84266 2.98198 3.84266 1.92132C3.842 0.86066 2.98133 0 1.92133 0Z" fill="#3C7DFF"/>
</svg>
