<svg width="24" height="24" viewBox="0 0 24 24" fill="none" xmlns="http://www.w3.org/2000/svg">
<path d="M12.0003 0.666656C5.7411 0.666656 0.666992 5.74076 0.666992 12C0.666992 18.2592 5.7411 23.3333 12.0003 23.3333C17.8905 23.3333 22.7305 18.8404 23.2815 13.0943C23.3071 12.8269 23.1697 12.5702 22.933 12.4432C22.6962 12.3162 22.4064 12.3437 22.1978 12.513C21.0515 13.4431 19.5919 14 18.0003 14C14.3184 14 11.3337 11.0152 11.3337 7.33332C11.3337 5.14652 12.3859 3.20564 14.0144 1.98888C14.2298 1.828 14.3274 1.55354 14.2621 1.29281C14.1968 1.03207 13.9813 0.836066 13.7155 0.795702C13.1558 0.710686 12.583 0.666656 12.0003 0.666656Z" fill="black"/>
</svg>
