<svg width="26" height="26" viewBox="0 0 26 26" fill="none" xmlns="http://www.w3.org/2000/svg">
<path d="M13 0C13.5009 0 13.907 0.406067 13.907 0.906977V2.11628C13.907 2.61719 13.5009 3.02326 13 3.02326C12.4991 3.02326 12.093 2.61719 12.093 2.11628V0.906977C12.093 0.406067 12.4991 0 13 0Z" fill="#1E1E22"/>
<path fill-rule="evenodd" clip-rule="evenodd" d="M6.04651 13C6.04651 9.15969 9.15969 6.04651 13 6.04651C16.8403 6.04651 19.9535 9.15969 19.9535 13C19.9535 16.8403 16.8403 19.9535 13 19.9535C9.15969 19.9535 6.04651 16.8403 6.04651 13ZM13 7.86046C10.1615 7.86046 7.86046 10.1615 7.86046 13C7.86046 15.8385 10.1615 18.1395 13 18.1395C15.8385 18.1395 18.1395 15.8385 18.1395 13C18.1395 10.1615 15.8385 7.86046 13 7.86046Z" fill="#1E1E22"/>
<path d="M5.09029 3.80764C4.73609 3.45344 4.16183 3.45344 3.80763 3.80764C3.45343 4.16184 3.45343 4.7361 3.80763 5.0903L4.66273 5.9454C5.01693 6.2996 5.5912 6.2996 5.94539 5.9454C6.29959 5.59121 6.29959 5.01694 5.94539 4.66275L5.09029 3.80764Z" fill="#1E1E22"/>
<path d="M26 13C26 13.5009 25.5939 13.907 25.093 13.907H23.8837C23.3828 13.907 22.9767 13.5009 22.9767 13C22.9767 12.4991 23.3828 12.093 23.8837 12.093H25.093C25.5939 12.093 26 12.4991 26 13Z" fill="#1E1E22"/>
<path d="M22.1924 5.09029C22.5466 4.73609 22.5466 4.16183 22.1924 3.80763C21.8382 3.45343 21.2639 3.45343 20.9097 3.80763L20.0546 4.66273C19.7004 5.01693 19.7004 5.5912 20.0546 5.94539C20.4088 6.29959 20.9831 6.29959 21.3373 5.94539L22.1924 5.09029Z" fill="#1E1E22"/>
<path d="M13 22.9767C13.5009 22.9767 13.907 23.3828 13.907 23.8837V25.093C13.907 25.5939 13.5009 26 13 26C12.4991 26 12.093 25.5939 12.093 25.093V23.8837C12.093 23.3828 12.4991 22.9767 13 22.9767Z" fill="#1E1E22"/>
<path d="M21.3373 20.0546C20.9831 19.7004 20.4089 19.7004 20.0547 20.0546C19.7005 20.4088 19.7005 20.9831 20.0547 21.3373L20.9098 22.1924C21.264 22.5466 21.8382 22.5466 22.1924 22.1924C22.5466 21.8382 22.5466 21.2639 22.1924 20.9097L21.3373 20.0546Z" fill="#1E1E22"/>
<path d="M3.02326 13C3.02326 13.5009 2.61719 13.907 2.11628 13.907H0.906977C0.406067 13.907 0 13.5009 0 13C0 12.4991 0.406067 12.093 0.906977 12.093H2.11628C2.61719 12.093 3.02326 12.4991 3.02326 13Z" fill="#1E1E22"/>
<path d="M5.94531 21.3373C6.29951 20.9831 6.29951 20.4088 5.94531 20.0546C5.59112 19.7004 5.01685 19.7004 4.66265 20.0546L3.80755 20.9097C3.45335 21.2639 3.45335 21.8382 3.80755 22.1924C4.16174 22.5466 4.73601 22.5466 5.09021 22.1924L5.94531 21.3373Z" fill="#1E1E22"/>
</svg>
